<?xml version="1.0" encoding="utf-8"?><svg xmlns="http://www.w3.org/2000/svg" xmlns:xlink="http://www.w3.org/1999/xlink"><symbol viewBox="0 0 10 8" id="checkbox-icon" xmlns="http://www.w3.org/2000/svg"><path d="M4.527 7.388a1.161 1.161 0 01-1.643 0L.34 4.844a1.161 1.161 0 011.642-1.642l1.516 1.515c.115.115.3.115.415 0L8.018.613A1.161 1.161 0 019.66 2.255L4.527 7.388z"/></symbol><symbol viewBox="0 0 78 78" id="header-logo" xmlns="http://www.w3.org/2000/svg"><path d="M63.056 28.881l-8.844.014-26.41 24.897H10.034V36.46l24.2-22.61-16.242.05L0 30.663V64.15h34.028l29.014-27.58.014-7.688z"/><path d="M43.972 13.849L14.96 41.432l-.014 7.686 8.843-.013L50.2 24.208h17.766V41.54l-24.2 22.611 16.242-.05L78 47.338v-33.49H43.972z"/></symbol><symbol viewBox="0 0 46 42" id="icon-heard" xmlns="http://www.w3.org/2000/svg"><path d="M33.781.695c-2.496 0-4.784.791-6.802 2.351-1.933 1.496-3.221 3.4-3.979 4.786-.758-1.385-2.046-3.29-3.98-4.786-2.017-1.56-4.305-2.35-6.801-2.35C5.253.695 0 6.392 0 13.947 0 22.11 6.553 27.695 16.475 36.15a571.533 571.533 0 015.579 4.798 1.435 1.435 0 001.892 0c1.985-1.735 3.895-3.363 5.58-4.8C39.447 27.697 46 22.112 46 13.95 46 6.392 40.747.694 33.781.694z"/></symbol></svg>